%TF.GenerationSoftware,KiCad,Pcbnew,7.0.5*%
%TF.CreationDate,2026-01-03T12:16:55-08:00*%
%TF.ProjectId,ST-Noise,53542d4e-6f69-4736-952e-6b696361645f,rev?*%
%TF.SameCoordinates,Original*%
%TF.FileFunction,Plated,1,2,PTH,Drill*%
%TF.FilePolarity,Positive*%
%FSLAX46Y46*%
G04 Gerber Fmt 4.6, Leading zero omitted, Abs format (unit mm)*
G04 Created by KiCad (PCBNEW 7.0.5) date 2026-01-03 12:16:55*
%MOMM*%
%LPD*%
G01*
G04 APERTURE LIST*
%TA.AperFunction,ComponentDrill*%
%ADD10C,1.000000*%
%TD*%
G04 APERTURE END LIST*
D10*
%TO.C, *%
X109220000Y-71120000D03*
%TO.C,J1*%
X109220000Y-76200000D03*
%TO.C,A1*%
X110370000Y-50940000D03*
X110370000Y-66180000D03*
%TO.C,J2*%
X111760000Y-45720000D03*
%TO.C, *%
X111760000Y-71120000D03*
%TO.C,J1*%
X111760000Y-76200000D03*
%TO.C,A1*%
X112910000Y-50940000D03*
X112910000Y-66180000D03*
%TO.C,J2*%
X114300000Y-45720000D03*
%TO.C, *%
X114300000Y-71120000D03*
%TO.C,J1*%
X114300000Y-76200000D03*
%TO.C,A1*%
X115450000Y-50940000D03*
X115450000Y-66180000D03*
%TO.C, *%
X116840000Y-71120000D03*
%TO.C,J1*%
X116840000Y-76200000D03*
%TO.C,A1*%
X117990000Y-50940000D03*
X117990000Y-66180000D03*
%TO.C, *%
X119380000Y-71120000D03*
%TO.C,J1*%
X119380000Y-76200000D03*
%TO.C,A1*%
X120530000Y-50940000D03*
X120530000Y-66180000D03*
%TO.C,J3*%
X121920000Y-45720000D03*
%TO.C, *%
X121920000Y-71120000D03*
%TO.C,J1*%
X121920000Y-76200000D03*
%TO.C,A1*%
X123070000Y-50940000D03*
X123070000Y-66180000D03*
%TO.C,J3*%
X124460000Y-45720000D03*
%TO.C, *%
X124460000Y-71120000D03*
%TO.C,J1*%
X124460000Y-76200000D03*
%TO.C,A1*%
X125610000Y-50940000D03*
X125610000Y-66180000D03*
%TO.C, *%
X127000000Y-71120000D03*
%TO.C,J1*%
X127000000Y-76200000D03*
%TO.C,A1*%
X128150000Y-50940000D03*
X128150000Y-66180000D03*
%TO.C, *%
X129540000Y-71120000D03*
%TO.C,J1*%
X129540000Y-76200000D03*
%TO.C,A1*%
X130690000Y-50940000D03*
X130690000Y-66180000D03*
%TO.C,J4*%
X132080000Y-45720000D03*
%TO.C, *%
X132080000Y-71120000D03*
%TO.C,J1*%
X132080000Y-76200000D03*
%TO.C,A1*%
X133230000Y-50940000D03*
X133230000Y-66180000D03*
%TO.C,J4*%
X134620000Y-45720000D03*
%TO.C, *%
X134620000Y-71120000D03*
%TO.C,J1*%
X134620000Y-76200000D03*
%TO.C,A1*%
X135770000Y-50940000D03*
X135770000Y-66180000D03*
%TO.C, *%
X137160000Y-71120000D03*
%TO.C,J1*%
X137160000Y-76200000D03*
%TO.C,A1*%
X138310000Y-50940000D03*
X138310000Y-66180000D03*
%TO.C, *%
X139700000Y-71120000D03*
%TO.C,J1*%
X139700000Y-76200000D03*
%TO.C,A1*%
X140850000Y-50940000D03*
X140850000Y-66180000D03*
%TO.C, *%
X142240000Y-71120000D03*
%TO.C,J1*%
X142240000Y-76200000D03*
%TO.C,A1*%
X143390000Y-50940000D03*
X143390000Y-66180000D03*
%TO.C,JP1*%
X144780000Y-45720000D03*
%TO.C, *%
X144780000Y-71120000D03*
%TO.C,J1*%
X144780000Y-76200000D03*
%TO.C,A1*%
X145930000Y-50940000D03*
X145930000Y-66180000D03*
%TO.C,JP1*%
X147320000Y-45720000D03*
%TO.C, *%
X147320000Y-71120000D03*
%TO.C,J1*%
X147320000Y-76200000D03*
%TO.C,JP1*%
X149860000Y-45720000D03*
%TO.C, *%
X149860000Y-71120000D03*
%TO.C,J1*%
X149860000Y-76200000D03*
M02*
