%TF.GenerationSoftware,KiCad,Pcbnew,7.0.5*%
%TF.CreationDate,2026-01-03T12:26:39-08:00*%
%TF.ProjectId,ST-Noise,53542d4e-6f69-4736-952e-6b696361645f,rev?*%
%TF.SameCoordinates,Original*%
%TF.FileFunction,Copper,L1,Top*%
%TF.FilePolarity,Positive*%
%FSLAX46Y46*%
G04 Gerber Fmt 4.6, Leading zero omitted, Abs format (unit mm)*
G04 Created by KiCad (PCBNEW 7.0.5) date 2026-01-03 12:26:39*
%MOMM*%
%LPD*%
G01*
G04 APERTURE LIST*
%TA.AperFunction,ComponentPad*%
%ADD10R,1.700000X1.700000*%
%TD*%
%TA.AperFunction,ComponentPad*%
%ADD11O,1.700000X1.700000*%
%TD*%
%TA.AperFunction,ComponentPad*%
%ADD12R,1.600000X1.600000*%
%TD*%
%TA.AperFunction,ComponentPad*%
%ADD13O,1.600000X1.600000*%
%TD*%
%TA.AperFunction,Conductor*%
%ADD14C,0.250000*%
%TD*%
G04 APERTURE END LIST*
D10*
%TO.P,J2,1,Pin_1*%
%TO.N,Net-(A1-+5V)*%
X111760000Y-45720000D03*
D11*
%TO.P,J2,2,Pin_2*%
%TO.N,Net-(J1a1-Pin_5)*%
X114300000Y-45720000D03*
%TD*%
D12*
%TO.P,A1,1,D1/TX*%
%TO.N,unconnected-(A1-D1{slash}TX-Pad1)*%
X110370000Y-66180000D03*
D13*
%TO.P,A1,2,D0/RX*%
%TO.N,unconnected-(A1-D0{slash}RX-Pad2)*%
X112910000Y-66180000D03*
%TO.P,A1,3,~{RESET}*%
%TO.N,unconnected-(A1-~{RESET}-Pad3)*%
X115450000Y-66180000D03*
%TO.P,A1,4,GND*%
%TO.N,Net-(J1a1-Pin_5)*%
X117990000Y-66180000D03*
%TO.P,A1,5,D2*%
%TO.N,Net-(A1-D2)*%
X120530000Y-66180000D03*
%TO.P,A1,6,D3*%
%TO.N,unconnected-(A1-D3-Pad6)*%
X123070000Y-66180000D03*
%TO.P,A1,7,D4*%
%TO.N,Net-(A1-D4)*%
X125610000Y-66180000D03*
%TO.P,A1,8,D5*%
%TO.N,Net-(A1-D5)*%
X128150000Y-66180000D03*
%TO.P,A1,9,D6*%
%TO.N,Net-(A1-D6)*%
X130690000Y-66180000D03*
%TO.P,A1,10,D7*%
%TO.N,Net-(A1-D7)*%
X133230000Y-66180000D03*
%TO.P,A1,11,D8*%
%TO.N,Net-(A1-D8)*%
X135770000Y-66180000D03*
%TO.P,A1,12,D9*%
%TO.N,unconnected-(A1-D9-Pad12)*%
X138310000Y-66180000D03*
%TO.P,A1,13,D10*%
%TO.N,unconnected-(A1-D10-Pad13)*%
X140850000Y-66180000D03*
%TO.P,A1,14,D11*%
%TO.N,unconnected-(A1-D11-Pad14)*%
X143390000Y-66180000D03*
%TO.P,A1,15,D12*%
%TO.N,unconnected-(A1-D12-Pad15)*%
X145930000Y-66180000D03*
%TO.P,A1,16,D13*%
%TO.N,unconnected-(A1-D13-Pad16)*%
X145930000Y-50940000D03*
%TO.P,A1,17,3V3*%
%TO.N,unconnected-(A1-3V3-Pad17)*%
X143390000Y-50940000D03*
%TO.P,A1,18,AREF*%
%TO.N,unconnected-(A1-AREF-Pad18)*%
X140850000Y-50940000D03*
%TO.P,A1,19,A0*%
%TO.N,unconnected-(A1-A0-Pad19)*%
X138310000Y-50940000D03*
%TO.P,A1,20,A1*%
%TO.N,unconnected-(A1-A1-Pad20)*%
X135770000Y-50940000D03*
%TO.P,A1,21,A2*%
%TO.N,unconnected-(A1-A2-Pad21)*%
X133230000Y-50940000D03*
%TO.P,A1,22,A3*%
%TO.N,unconnected-(A1-A3-Pad22)*%
X130690000Y-50940000D03*
%TO.P,A1,23,A4*%
%TO.N,unconnected-(A1-A4-Pad23)*%
X128150000Y-50940000D03*
%TO.P,A1,24,A5*%
%TO.N,unconnected-(A1-A5-Pad24)*%
X125610000Y-50940000D03*
%TO.P,A1,25,A6*%
%TO.N,unconnected-(A1-A6-Pad25)*%
X123070000Y-50940000D03*
%TO.P,A1,26,A7*%
%TO.N,unconnected-(A1-A7-Pad26)*%
X120530000Y-50940000D03*
%TO.P,A1,27,+5V*%
%TO.N,Net-(A1-+5V)*%
X117990000Y-50940000D03*
%TO.P,A1,28,~{RESET}*%
%TO.N,unconnected-(A1-~{RESET}-Pad28)*%
X115450000Y-50940000D03*
%TO.P,A1,29,GND*%
%TO.N,unconnected-(A1-GND-Pad29)*%
X112910000Y-50940000D03*
%TO.P,A1,30,VIN*%
%TO.N,unconnected-(A1-VIN-Pad30)*%
X110370000Y-50940000D03*
%TD*%
D10*
%TO.P, ,1,Pin_1*%
%TO.N,unconnected-(J1a1-Pin_1-Pad1)*%
X109220000Y-71120000D03*
D11*
%TO.P, ,2,Pin_2*%
%TO.N,unconnected-(J1a1-Pin_2-Pad2)*%
X111760000Y-71120000D03*
%TO.P, ,3,Pin_3*%
%TO.N,unconnected-(J1a1-Pin_3-Pad3)*%
X114300000Y-71120000D03*
%TO.P, ,4,Pin_4*%
%TO.N,unconnected-(J1a1-Pin_4-Pad4)*%
X116840000Y-71120000D03*
%TO.P, ,5,Pin_5*%
%TO.N,Net-(J1a1-Pin_5)*%
X119380000Y-71120000D03*
%TO.P, ,6,Pin_6*%
%TO.N,unconnected-(J1a1-Pin_6-Pad6)*%
X121920000Y-71120000D03*
%TO.P, ,7,Pin_7*%
%TO.N,unconnected-(J1a1-Pin_7-Pad7)*%
X124460000Y-71120000D03*
%TO.P, ,8,Pin_8*%
%TO.N,unconnected-(J1a1-Pin_8-Pad8)*%
X127000000Y-71120000D03*
%TO.P, ,9,Pin_9*%
%TO.N,unconnected-(J1a1-Pin_9-Pad9)*%
X129540000Y-71120000D03*
%TO.P, ,10,Pin_10*%
%TO.N,unconnected-(J1a1-Pin_10-Pad10)*%
X132080000Y-71120000D03*
%TO.P, ,11,Pin_11*%
%TO.N,unconnected-(J1a1-Pin_11-Pad11)*%
X134620000Y-71120000D03*
%TO.P, ,12,Pin_12*%
%TO.N,unconnected-(J1a1-Pin_12-Pad12)*%
X137160000Y-71120000D03*
%TO.P, ,13,Pin_13*%
%TO.N,unconnected-(J1a1-Pin_13-Pad13)*%
X139700000Y-71120000D03*
%TO.P, ,14,Pin_14*%
%TO.N,unconnected-(J1a1-Pin_14-Pad14)*%
X142240000Y-71120000D03*
%TO.P, ,15,Pin_15*%
%TO.N,unconnected-(J1a1-Pin_15-Pad15)*%
X144780000Y-71120000D03*
%TO.P, ,16,Pin_16*%
%TO.N,unconnected-(J1a1-Pin_16-Pad16)*%
X147320000Y-71120000D03*
%TO.P, ,17,Pin_17*%
%TO.N,unconnected-(J1a1-Pin_17-Pad17)*%
X149860000Y-71120000D03*
%TD*%
D10*
%TO.P,J1,1,Pin_1*%
%TO.N,unconnected-(J1b1-Pin_1-Pad1)*%
X109220000Y-76200000D03*
D11*
%TO.P,J1,2,Pin_2*%
%TO.N,unconnected-(J1b1-Pin_2-Pad2)*%
X111760000Y-76200000D03*
%TO.P,J1,3,Pin_3*%
%TO.N,unconnected-(J1b1-Pin_3-Pad3)*%
X114300000Y-76200000D03*
%TO.P,J1,4,Pin_4*%
%TO.N,Net-(A1-D4)*%
X116840000Y-76200000D03*
%TO.P,J1,5,Pin_5*%
%TO.N,Net-(A1-D5)*%
X119380000Y-76200000D03*
%TO.P,J1,6,Pin_6*%
%TO.N,unconnected-(J1b1-Pin_6-Pad6)*%
X121920000Y-76200000D03*
%TO.P,J1,7,Pin_7*%
%TO.N,unconnected-(J1b1-Pin_7-Pad7)*%
X124460000Y-76200000D03*
%TO.P,J1,8,Pin_8*%
%TO.N,unconnected-(J1b1-Pin_8-Pad8)*%
X127000000Y-76200000D03*
%TO.P,J1,9,Pin_9*%
%TO.N,unconnected-(J1b1-Pin_9-Pad9)*%
X129540000Y-76200000D03*
%TO.P,J1,10,Pin_10*%
%TO.N,unconnected-(J1b1-Pin_10-Pad10)*%
X132080000Y-76200000D03*
%TO.P,J1,11,Pin_11*%
%TO.N,unconnected-(J1b1-Pin_11-Pad11)*%
X134620000Y-76200000D03*
%TO.P,J1,12,Pin_12*%
%TO.N,Net-(A1-D7)*%
X137160000Y-76200000D03*
%TO.P,J1,13,Pin_13*%
%TO.N,Net-(A1-D8)*%
X139700000Y-76200000D03*
%TO.P,J1,14,Pin_14*%
%TO.N,unconnected-(J1b1-Pin_14-Pad14)*%
X142240000Y-76200000D03*
%TO.P,J1,15,Pin_15*%
%TO.N,unconnected-(J1b1-Pin_15-Pad15)*%
X144780000Y-76200000D03*
%TO.P,J1,16,Pin_16*%
%TO.N,unconnected-(J1b1-Pin_16-Pad16)*%
X147320000Y-76200000D03*
%TO.P,J1,17,Pin_17*%
%TO.N,Net-(A1-D6)*%
X149860000Y-76200000D03*
%TD*%
D10*
%TO.P,J4,1,Pin_1*%
%TO.N,Net-(J3-Pin_1)*%
X132080000Y-45720000D03*
D11*
%TO.P,J4,2,Pin_2*%
%TO.N,Net-(J4-Pin_2)*%
X134620000Y-45720000D03*
%TD*%
D10*
%TO.P,J3,1,Pin_1*%
%TO.N,Net-(J3-Pin_1)*%
X121920000Y-45720000D03*
D11*
%TO.P,J3,2,Pin_2*%
%TO.N,Net-(A1-D2)*%
X124460000Y-45720000D03*
%TD*%
D10*
%TO.P,JP1,1,A*%
%TO.N,Net-(A1-D2)*%
X144780000Y-45720000D03*
D11*
%TO.P,JP1,2,C*%
%TO.N,Net-(J4-Pin_2)*%
X147320000Y-45720000D03*
%TO.P,JP1,3,B*%
%TO.N,Net-(A1-D8)*%
X149860000Y-45720000D03*
%TD*%
D14*
%TO.N,Net-(J1a1-Pin_5)*%
X109220000Y-63500000D02*
X116840000Y-63500000D01*
X117990000Y-64650000D02*
X117990000Y-66180000D01*
X117990000Y-66180000D02*
X117990000Y-69730000D01*
X114300000Y-45720000D02*
X114300000Y-43180000D01*
X116840000Y-63500000D02*
X117990000Y-64650000D01*
X109220000Y-43180000D02*
X109220000Y-63500000D01*
X117990000Y-69730000D02*
X119380000Y-71120000D01*
X114300000Y-43180000D02*
X109220000Y-43180000D01*
%TO.N,Net-(A1-D2)*%
X120530000Y-64890000D02*
X120530000Y-66180000D01*
X144780000Y-45720000D02*
X142240000Y-48260000D01*
X121920000Y-63500000D02*
X120530000Y-64890000D01*
X124460000Y-63500000D02*
X121920000Y-63500000D01*
X142240000Y-48260000D02*
X124460000Y-48260000D01*
X124460000Y-45720000D02*
X124460000Y-63500000D01*
%TO.N,Net-(A1-D4)*%
X120555000Y-69945000D02*
X120555000Y-72485000D01*
X123210000Y-68580000D02*
X121920000Y-68580000D01*
X125610000Y-66180000D02*
X123210000Y-68580000D01*
X120555000Y-72485000D02*
X116840000Y-76200000D01*
X121920000Y-68580000D02*
X120555000Y-69945000D01*
%TO.N,Net-(A1-D5)*%
X128175000Y-66205000D02*
X128175000Y-71606701D01*
X126121701Y-73660000D02*
X121920000Y-73660000D01*
X121920000Y-73660000D02*
X119380000Y-76200000D01*
X128175000Y-71606701D02*
X126121701Y-73660000D01*
X128150000Y-66180000D02*
X128175000Y-66205000D01*
%TO.N,Net-(A1-D6)*%
X130715000Y-66205000D02*
X130690000Y-66180000D01*
%TO.N,Net-(A1-D7)*%
X133445000Y-66395000D02*
X133230000Y-66180000D01*
X137160000Y-76200000D02*
X133445000Y-72485000D01*
X133445000Y-72485000D02*
X133445000Y-66395000D01*
%TO.N,Net-(A1-D8)*%
X139700000Y-73660000D02*
X139700000Y-76200000D01*
X135795000Y-72295000D02*
X137160000Y-73660000D01*
X137160000Y-63500000D02*
X135770000Y-64890000D01*
X135770000Y-64890000D02*
X135770000Y-66180000D01*
X149860000Y-63500000D02*
X137160000Y-63500000D01*
X137160000Y-73660000D02*
X139700000Y-73660000D01*
X135795000Y-66205000D02*
X135795000Y-72295000D01*
X149860000Y-45720000D02*
X149860000Y-63500000D01*
X135770000Y-66180000D02*
X135795000Y-66205000D01*
%TO.N,Net-(J3-Pin_1)*%
X121920000Y-43180000D02*
X132080000Y-43180000D01*
X132080000Y-43180000D02*
X132080000Y-45720000D01*
X121920000Y-45720000D02*
X121920000Y-43180000D01*
%TO.N,Net-(J4-Pin_2)*%
X134620000Y-45720000D02*
X134620000Y-43180000D01*
X147320000Y-43180000D02*
X147320000Y-45720000D01*
X134620000Y-43180000D02*
X147320000Y-43180000D01*
%TO.N,Net-(A1-+5V)*%
X117990000Y-49410000D02*
X117990000Y-50940000D01*
X111760000Y-48260000D02*
X116840000Y-48260000D01*
X111760000Y-45720000D02*
X111760000Y-48260000D01*
X116840000Y-48260000D02*
X117990000Y-49410000D01*
%TD*%
M02*
